<svg width="18" height="18" viewBox="0 0 18 18" fill="none" xmlns="http://www.w3.org/2000/svg">
<g clip-path="url(#clip0_127_2)">
<path d="M11.185 10.4795C11.1239 10.4486 11.0933 10.4486 11.0322 10.4486C10.7266 10.4178 10.421 10.6336 10.1154 11.0034C9.90144 11.25 9.56528 11.2808 9.3208 11.0959C8.06782 10.2329 7.33438 9.27741 7.12046 8.26028C7.0899 8.04453 7.12046 7.82878 7.27326 7.67467C7.48718 7.45891 7.7011 7.21234 7.8539 6.96576C7.91502 6.8733 7.94558 6.75001 7.94558 6.65754C7.94558 5.64042 7.8539 4.74658 7.12046 4.40754C6.99821 4.3459 6.87597 4.3459 6.72317 4.37672C5.65356 4.65412 5.04236 5.45549 5.13404 7.11987C5.13404 7.18152 5.13404 7.21234 5.1646 7.27398C5.89804 9.95549 7.27326 12.2363 10.3904 13.5308C10.4515 13.5617 10.5126 13.5617 10.5738 13.5925C11.46 13.6541 12.2546 13.5 12.8047 12.4829C12.8658 12.3596 12.8963 12.2363 12.8658 12.113C12.7741 11.4349 11.9795 10.7877 11.185 10.4795Z" fill="white"/>
<path d="M17.5721 6.16438C17.022 4.37671 15.9219 2.86644 14.4244 1.75685C12.8964 0.616438 11.0933 0 9.19861 0C4.37008 0 0.42781 3.97603 0.42781 8.84589C0.42781 10.2021 0.733412 11.5582 1.34462 12.7911C1.22238 13.6849 0.855653 14.5788 0.366689 15.1952C-0.122275 15.8116 -0.122275 16.6438 0.305568 17.2603C0.611171 17.6918 1.1307 17.9692 1.68078 17.9692C1.8947 17.9692 2.07806 17.9384 2.26143 17.8459L5.22577 16.7363C6.44818 17.3527 7.79283 17.6918 9.16805 17.6918C10.1154 17.6918 11.0628 17.5377 11.9796 17.2295C15.5857 16.0274 18 12.6678 18 8.84589C18 7.92123 17.8472 7.0274 17.5721 6.16438ZM11.6129 16.089C10.8489 16.3356 10.0543 16.4897 9.19861 16.4897C7.79283 16.4897 6.47874 16.089 5.34801 15.411L1.86414 16.7055C1.80302 16.7363 1.7419 16.7363 1.71134 16.7363C1.55854 16.7363 1.4363 16.6747 1.34462 16.5514C1.22238 16.3664 1.22238 16.1507 1.34462 15.9966C2.0475 15.1027 2.53647 13.7774 2.59759 12.5753C1.98638 11.4658 1.65022 10.2329 1.65022 8.87671C1.65022 4.65411 5.04241 1.23288 9.19861 1.23288C12.5602 1.23288 15.4023 3.45205 16.3803 6.53425C16.6248 7.27397 16.747 8.04452 16.747 8.84589C16.747 12.2055 14.6078 15.0719 11.6129 16.089Z" fill="white"/>
</g>
<defs>
<clipPath id="clip0_127_2">
<rect width="18" height="18" fill="white"/>
</clipPath>
</defs>
</svg>
